<svg width="133" height="56" viewBox="0 0 133 56" fill="none" xmlns="http://www.w3.org/2000/svg">
<path d="M9.73276 24.6413C10.6678 24.6413 11.4605 24.5261 12.1109 24.2957C12.7749 24.0518 13.317 23.7198 13.737 23.2998C14.1571 22.8797 14.462 22.3919 14.6517 21.8363C14.8414 21.2671 14.9363 20.6573 14.9363 20.0069C14.9363 18.706 14.5094 17.6897 13.6557 16.958C12.8156 16.2262 11.5079 15.8604 9.73276 15.8604H6.9684V24.6413H9.73276ZM24.327 40.3331H18.1072C16.9553 40.3331 16.1287 39.8995 15.6274 39.0322L10.7084 30.4343C10.4781 30.0684 10.2206 29.8041 9.93603 29.6415C9.65146 29.4654 9.24494 29.3773 8.71645 29.3773H6.9684V40.3331H0.0981445V10.7178H9.73276C11.8738 10.7178 13.6964 10.9414 15.2005 11.3886C16.7182 11.8222 17.9513 12.432 18.8999 13.218C19.862 14.0039 20.5599 14.9321 20.9935 16.0026C21.4271 17.0732 21.6439 18.2385 21.6439 19.4988C21.6439 20.4609 21.5152 21.3688 21.2577 22.2225C21.0003 23.0762 20.6208 23.8689 20.1195 24.6006C19.6181 25.3188 18.9947 25.9625 18.2494 26.5316C17.5177 27.1008 16.6708 27.5683 15.7087 27.9341C16.1558 28.1645 16.5759 28.4558 16.9689 28.8082C17.3619 29.1469 17.7142 29.5534 18.0259 30.0277L24.327 40.3331Z" fill="#FEFEFF"/>
<path d="M37.8052 27.2634C37.8052 26.762 37.7374 26.2742 37.6019 25.7999C37.4799 25.3256 37.2699 24.9055 36.9718 24.5397C36.6872 24.1602 36.3078 23.8553 35.8335 23.625C35.3592 23.3946 34.7833 23.2794 34.1058 23.2794C32.9133 23.2794 31.9783 23.625 31.3008 24.3161C30.6232 24.9936 30.1761 25.976 29.9592 27.2634H37.8052ZM29.8779 30.9221C30.0812 32.6837 30.6165 33.9642 31.4837 34.7637C32.351 35.5497 33.4689 35.9427 34.8375 35.9427C35.5693 35.9427 36.1994 35.8546 36.7279 35.6784C37.2563 35.5023 37.7238 35.3058 38.1304 35.089C38.5504 34.8721 38.9299 34.6757 39.2686 34.4995C39.621 34.3233 39.9868 34.2352 40.3663 34.2352C40.8676 34.2352 41.2471 34.4182 41.5045 34.7841L43.3339 37.0403C42.6834 37.7856 41.9788 38.3953 41.22 38.8696C40.4747 39.3304 39.7023 39.6962 38.9028 39.9672C38.1168 40.2247 37.3241 40.4009 36.5246 40.4957C35.7387 40.6041 34.9866 40.6583 34.2684 40.6583C32.7914 40.6583 31.4024 40.4212 30.1015 39.9469C28.8142 39.4591 27.6827 38.7409 26.707 37.7923C25.7449 36.8438 24.9793 35.6649 24.4102 34.2556C23.8546 32.8463 23.5768 31.2066 23.5768 29.3366C23.5768 27.9274 23.814 26.5926 24.2882 25.3324C24.7761 24.0721 25.4671 22.9678 26.3615 22.0192C27.2694 21.0706 28.3602 20.3186 29.634 19.763C30.9213 19.2074 32.3713 18.9296 33.9838 18.9296C35.3796 18.9296 36.6533 19.1464 37.8052 19.5801C38.9705 20.0137 39.9665 20.6438 40.7931 21.4704C41.6333 22.297 42.2837 23.3133 42.7444 24.5193C43.2187 25.7118 43.4558 27.0669 43.4558 28.5846C43.4558 29.0588 43.4355 29.445 43.3949 29.7432C43.3542 30.0413 43.2797 30.2784 43.1713 30.4546C43.0629 30.6307 42.9138 30.7527 42.7241 30.8204C42.5479 30.8882 42.3176 30.9221 42.033 30.9221H29.8779Z" fill="#FEFEFF"/>
<path d="M59.3941 24.9055C58.9198 24.377 58.4049 24.0112 57.8493 23.8079C57.2937 23.5911 56.7111 23.4827 56.1013 23.4827C55.5186 23.4827 54.9833 23.5979 54.4955 23.8282C54.0077 24.0586 53.5808 24.4312 53.215 24.9462C52.8626 25.4476 52.5848 26.1048 52.3816 26.9178C52.1783 27.7309 52.0767 28.7133 52.0767 29.8651C52.0767 30.9763 52.158 31.9113 52.3206 32.6701C52.4832 33.429 52.7068 34.0455 52.9914 34.5198C53.2895 34.9805 53.6418 35.3125 54.0483 35.5158C54.4549 35.7191 54.9088 35.8207 55.4102 35.8207C55.8709 35.8207 56.2842 35.78 56.6501 35.6987C57.0295 35.6039 57.375 35.4751 57.6867 35.3125C57.9984 35.1499 58.2897 34.9467 58.5607 34.7028C58.8453 34.4453 59.1231 34.1539 59.3941 33.8287V24.9055ZM65.6952 9.90479V40.3331H61.7926C61.0067 40.3331 60.4917 39.9808 60.2478 39.2761L59.76 37.6704C59.3399 38.1176 58.8995 38.5241 58.4388 38.8899C57.9781 39.2558 57.4767 39.5743 56.9347 39.8453C56.4062 40.1028 55.8303 40.2992 55.2069 40.4347C54.5971 40.5838 53.9331 40.6583 53.215 40.6583C52.1173 40.6583 51.101 40.4144 50.166 39.9266C49.231 39.4388 48.4247 38.7341 47.7472 37.8127C47.0697 36.8912 46.5344 35.7665 46.1414 34.4385C45.762 33.097 45.5723 31.5725 45.5723 29.8651C45.5723 28.2932 45.7891 26.8365 46.2227 25.495C46.6564 24.1399 47.2662 22.9745 48.0521 21.9989C48.8516 21.0097 49.8069 20.2373 50.9181 19.6817C52.0293 19.1261 53.2556 18.8483 54.5971 18.8483C55.6948 18.8483 56.6162 19.0041 57.3615 19.3158C58.1068 19.6275 58.7843 20.0476 59.3941 20.576V9.90479H65.6952Z" fill="#FEFEFF"/>
<path d="M2.55309 44.209V46.7621H5.99224V48.6394H2.55309V51.245H7.04351V53.1974H0V42.2567H7.04351V44.209H2.55309Z" fill="#FFA500"/>
<path d="M15.7877 53.1974H13.55C13.3848 53.1974 13.2496 53.1573 13.1445 53.0772C13.0444 52.9971 12.9643 52.902 12.9042 52.7919L11.5151 50.404C11.49 50.4891 11.46 50.5692 11.4249 50.6443C11.3899 50.7194 11.3524 50.7895 11.3123 50.8546L10.1709 52.7919C10.1008 52.892 10.0182 52.9846 9.92313 53.0697C9.82801 53.1548 9.70536 53.1974 9.55518 53.1974H7.48268L10.0958 49.1725L7.58781 45.4105H9.82551C9.99071 45.4105 10.1109 45.433 10.1859 45.4781C10.266 45.5181 10.3361 45.5882 10.3962 45.6883L11.7854 47.9936C11.8154 47.9035 11.853 47.8159 11.898 47.7308C11.9431 47.6407 11.9931 47.5506 12.0482 47.4605L13.0394 45.7259C13.1095 45.6157 13.1821 45.5356 13.2572 45.4856C13.3373 45.4355 13.4349 45.4105 13.55 45.4105H15.6826L13.1746 49.0674L15.7877 53.1974Z" fill="#FFA500"/>
<path d="M18.8356 51.0798C19.0108 51.2701 19.201 51.4052 19.4063 51.4853C19.6115 51.5654 19.8268 51.6055 20.052 51.6055C20.2673 51.6055 20.465 51.5629 20.6453 51.4778C20.8255 51.3927 20.9807 51.2575 21.1108 51.0723C21.246 50.8821 21.3511 50.6368 21.4262 50.3364C21.5013 50.0361 21.5388 49.6706 21.5388 49.2401C21.5388 48.8296 21.5088 48.4842 21.4487 48.2039C21.3887 47.9235 21.3036 47.6982 21.1934 47.528C21.0883 47.3528 20.9606 47.2277 20.8105 47.1526C20.6603 47.0775 20.4926 47.0399 20.3074 47.0399C19.9669 47.0399 19.6866 47.1025 19.4663 47.2277C19.2461 47.3528 19.0358 47.5355 18.8356 47.7758V51.0798ZM18.6929 46.3716C18.9983 46.0462 19.3437 45.7809 19.7292 45.5757C20.1196 45.3654 20.5827 45.2603 21.1183 45.2603C21.5238 45.2603 21.8993 45.3504 22.2447 45.5306C22.5901 45.7108 22.888 45.9712 23.1383 46.3116C23.3886 46.652 23.5838 47.07 23.724 47.5656C23.8692 48.0562 23.9418 48.6143 23.9418 49.2401C23.9418 49.8258 23.8592 50.3665 23.694 50.8621C23.5338 51.3577 23.306 51.7882 23.0106 52.1536C22.7203 52.5191 22.3699 52.8044 21.9594 53.0097C21.5539 53.2149 21.1033 53.3175 20.6077 53.3175C20.2022 53.3175 19.8618 53.26 19.5865 53.1448C19.3112 53.0297 19.0609 52.8745 18.8356 52.6793V55.6679H16.5078V45.4105H17.9495C18.2399 45.4105 18.4301 45.5406 18.5202 45.8009L18.6929 46.3716Z" fill="#FFA500"/>
<path d="M27.474 41.9563V53.1974H25.1461V41.9563H27.474Z" fill="#FFA500"/>
<path d="M32.6367 45.2903C33.2274 45.2903 33.7655 45.3829 34.2511 45.5682C34.7367 45.7534 35.1522 46.0187 35.4976 46.3641C35.8481 46.7095 36.1184 47.1301 36.3086 47.6257C36.5038 48.1162 36.6015 48.6694 36.6015 49.2852C36.6015 49.9059 36.5038 50.4666 36.3086 50.9672C36.1184 51.4628 35.8481 51.8858 35.4976 52.2362C35.1522 52.5816 34.7367 52.8495 34.2511 53.0397C33.7655 53.2249 33.2274 53.3175 32.6367 53.3175C32.041 53.3175 31.4978 53.2249 31.0072 53.0397C30.5216 52.8495 30.1011 52.5816 29.7457 52.2362C29.3953 51.8858 29.1224 51.4628 28.9272 50.9672C28.737 50.4666 28.6418 49.9059 28.6418 49.2852C28.6418 48.6694 28.737 48.1162 28.9272 47.6257C29.1224 47.1301 29.3953 46.7095 29.7457 46.3641C30.1011 46.0187 30.5216 45.7534 31.0072 45.5682C31.4978 45.3829 32.041 45.2903 32.6367 45.2903ZM32.6367 51.5904C33.1723 51.5904 33.5653 51.4027 33.8156 51.0273C34.0709 50.6468 34.1986 50.0711 34.1986 49.3002C34.1986 48.5292 34.0709 47.9561 33.8156 47.5806C33.5653 47.2051 33.1723 47.0174 32.6367 47.0174C32.086 47.0174 31.683 47.2051 31.4277 47.5806C31.1724 47.9561 31.0448 48.5292 31.0448 49.3002C31.0448 50.0711 31.1724 50.6468 31.4277 51.0273C31.683 51.4027 32.086 51.5904 32.6367 51.5904Z" fill="#FFA500"/>
<path d="M39.9513 46.6119C40.1916 46.1914 40.467 45.861 40.7773 45.6207C41.0927 45.3804 41.4532 45.2603 41.8586 45.2603C42.2091 45.2603 42.4944 45.3429 42.7147 45.5081L42.5645 47.2202C42.5395 47.3303 42.4969 47.4054 42.4368 47.4454C42.3818 47.4855 42.3042 47.5055 42.2041 47.5055C42.164 47.5055 42.1115 47.503 42.0464 47.498C41.9813 47.493 41.9137 47.488 41.8436 47.483C41.7735 47.473 41.701 47.4655 41.6259 47.4605C41.5558 47.4504 41.4907 47.4454 41.4306 47.4454C41.0902 47.4454 40.8174 47.5355 40.6121 47.7158C40.4119 47.896 40.2417 48.1463 40.1015 48.4667V53.1974H37.7737V45.4105H39.1554C39.2705 45.4105 39.3656 45.4205 39.4407 45.4405C39.5208 45.4605 39.5859 45.4931 39.636 45.5381C39.691 45.5782 39.7311 45.6332 39.7561 45.7033C39.7861 45.7734 39.8112 45.8585 39.8312 45.9586L39.9513 46.6119Z" fill="#FFA500"/>
<path d="M48.2195 48.3691C48.2195 48.1838 48.1945 48.0036 48.1444 47.8284C48.0994 47.6532 48.0218 47.498 47.9117 47.3628C47.8065 47.2227 47.6664 47.11 47.4912 47.0249C47.3159 46.9398 47.1032 46.8973 46.8529 46.8973C46.4124 46.8973 46.0669 47.0249 45.8166 47.2802C45.5663 47.5305 45.4011 47.8935 45.321 48.3691H48.2195ZM45.291 49.7207C45.3661 50.3715 45.5638 50.8445 45.8842 51.1399C46.2046 51.4303 46.6176 51.5754 47.1232 51.5754C47.3935 51.5754 47.6263 51.5429 47.8216 51.4778C48.0168 51.4127 48.1895 51.3401 48.3397 51.26C48.4949 51.1799 48.635 51.1074 48.7602 51.0423C48.8903 50.9772 49.0255 50.9447 49.1657 50.9447C49.3509 50.9447 49.4911 51.0122 49.5862 51.1474L50.262 51.9809C50.0217 52.2562 49.7614 52.4815 49.4811 52.6567C49.2057 52.8269 48.9204 52.9621 48.625 53.0622C48.3347 53.1573 48.0418 53.2224 47.7465 53.2575C47.4561 53.2975 47.1783 53.3175 46.913 53.3175C46.3673 53.3175 45.8542 53.2299 45.3736 53.0547C44.898 52.8745 44.48 52.6092 44.1196 52.2588C43.7642 51.9083 43.4813 51.4728 43.2711 50.9522C43.0658 50.4315 42.9632 49.8258 42.9632 49.135C42.9632 48.6143 43.0508 48.1213 43.226 47.6557C43.4062 47.1901 43.6615 46.7821 43.9919 46.4317C44.3273 46.0813 44.7303 45.8034 45.2009 45.5982C45.6765 45.393 46.2121 45.2903 46.8078 45.2903C47.3235 45.2903 47.794 45.3704 48.2195 45.5306C48.6501 45.6908 49.018 45.9236 49.3234 46.229C49.6337 46.5343 49.874 46.9098 50.0442 47.3553C50.2195 47.7959 50.3071 48.2965 50.3071 48.8571C50.3071 49.0324 50.2996 49.175 50.2845 49.2852C50.2695 49.3953 50.242 49.4829 50.2019 49.548C50.1619 49.6131 50.1068 49.6581 50.0367 49.6831C49.9717 49.7082 49.8866 49.7207 49.7814 49.7207H45.291Z" fill="#FFA500"/>
<path d="M53.6495 46.6119C53.8898 46.1914 54.1652 45.861 54.4755 45.6207C54.7909 45.3804 55.1514 45.2603 55.5568 45.2603C55.9073 45.2603 56.1926 45.3429 56.4129 45.5081L56.2627 47.2202C56.2377 47.3303 56.1951 47.4054 56.135 47.4454C56.08 47.4855 56.0024 47.5055 55.9023 47.5055C55.8622 47.5055 55.8096 47.503 55.7446 47.498C55.6795 47.493 55.6119 47.488 55.5418 47.483C55.4717 47.473 55.3992 47.4655 55.3241 47.4605C55.254 47.4504 55.1889 47.4454 55.1288 47.4454C54.7884 47.4454 54.5156 47.5355 54.3103 47.7158C54.1101 47.896 53.9399 48.1463 53.7997 48.4667V53.1974H51.4719V45.4105H52.8536C52.9687 45.4105 53.0638 45.4205 53.1389 45.4405C53.219 45.4605 53.2841 45.4931 53.3342 45.5381C53.3892 45.5782 53.4293 45.6332 53.4543 45.7033C53.4843 45.7734 53.5094 45.8585 53.5294 45.9586L53.6495 46.6119Z" fill="#FFA500"/>
<path d="M62.1549 47.115C62.0948 47.2101 62.0297 47.2777 61.9596 47.3178C61.8945 47.3578 61.8094 47.3779 61.7043 47.3779C61.5942 47.3779 61.484 47.3553 61.3739 47.3103C61.2638 47.2602 61.1436 47.2076 61.0135 47.1526C60.8883 47.0975 60.7456 47.0475 60.5855 47.0024C60.4253 46.9523 60.2425 46.9273 60.0373 46.9273C59.7419 46.9273 59.5142 46.9849 59.354 47.1C59.1988 47.2102 59.1212 47.3653 59.1212 47.5656C59.1212 47.7108 59.1713 47.8309 59.2714 47.926C59.3765 48.0211 59.5142 48.1062 59.6844 48.1813C59.8546 48.2514 60.0473 48.319 60.2626 48.3841C60.4778 48.4491 60.6981 48.5217 60.9234 48.6018C61.1486 48.6819 61.3689 48.777 61.5842 48.8872C61.7994 48.9923 61.9922 49.125 62.1624 49.2852C62.3326 49.4403 62.4677 49.6306 62.5679 49.8558C62.673 50.0811 62.7255 50.3514 62.7255 50.6668C62.7255 51.0523 62.6555 51.4077 62.5153 51.7331C62.3751 52.0585 62.1649 52.3389 61.8845 52.5741C61.6092 52.8094 61.2663 52.9921 60.8558 53.1223C60.4503 53.2525 59.9822 53.3175 59.4516 53.3175C59.1863 53.3175 58.9209 53.2925 58.6556 53.2424C58.3903 53.1924 58.1325 53.1248 57.8822 53.0397C57.6369 52.9546 57.4091 52.8545 57.1989 52.7393C56.9886 52.6192 56.8084 52.4915 56.6582 52.3564L57.1989 51.5003C57.2589 51.4002 57.334 51.3226 57.4241 51.2676C57.5192 51.2075 57.6394 51.1774 57.7846 51.1774C57.9197 51.1774 58.0399 51.2075 58.145 51.2676C58.2551 51.3276 58.3728 51.3927 58.4979 51.4628C58.6231 51.5329 58.7683 51.598 58.9335 51.658C59.1037 51.7181 59.3164 51.7481 59.5717 51.7481C59.7519 51.7481 59.9046 51.7306 60.0298 51.6956C60.1549 51.6555 60.2551 51.603 60.3301 51.5379C60.4052 51.4728 60.4603 51.4002 60.4953 51.3201C60.5304 51.24 60.5479 51.1574 60.5479 51.0723C60.5479 50.9171 60.4953 50.7895 60.3902 50.6894C60.2851 50.5892 60.1474 50.5041 59.9772 50.434C59.807 50.359 59.6118 50.2914 59.3915 50.2313C59.1763 50.1662 58.956 50.0936 58.7307 50.0135C58.5054 49.9334 58.2827 49.8383 58.0624 49.7282C57.8471 49.6131 57.6544 49.4704 57.4842 49.3002C57.314 49.125 57.1763 48.9122 57.0712 48.6619C56.9661 48.4116 56.9135 48.1087 56.9135 47.7533C56.9135 47.4229 56.9761 47.11 57.1012 46.8147C57.2314 46.5143 57.4241 46.2515 57.6794 46.0262C57.9348 45.8009 58.2551 45.6232 58.6406 45.4931C59.0261 45.3579 59.4766 45.2903 59.9922 45.2903C60.2726 45.2903 60.5429 45.3154 60.8032 45.3654C61.0685 45.4155 61.3163 45.4856 61.5466 45.5757C61.7769 45.6658 61.9871 45.7734 62.1774 45.8986C62.3676 46.0187 62.5353 46.1514 62.6805 46.2965L62.1549 47.115Z" fill="#FFA500"/>
<path fill-rule="evenodd" clip-rule="evenodd" d="M76.0708 12.1657C75.6641 12.9005 75.4248 13.9019 75.5392 14.3908C75.8543 15.7375 82.6457 22.1806 83.5312 21.9734C85.1564 21.5931 84.453 19.8127 81.5689 17.0058C79.9223 15.4036 78.689 13.91 78.8276 13.6868C78.966 13.463 88.5026 12.2672 100.019 11.0289C111.536 9.79073 121.162 8.72719 121.409 8.66545C121.657 8.60432 121.922 8.81887 121.998 9.14318C122.163 9.84907 101.39 46.2358 100.577 46.6653C99.6447 47.1581 95.9028 36.3517 95.9796 33.3893C96.0846 29.3387 98.6469 25.9962 104.551 22.2113C108.74 19.525 109.613 18.7099 109.376 17.7007C109.014 16.1515 107.565 16.7462 101.284 21.0243C92.1582 27.2399 91.118 31.7751 95.9448 44.2967C97.9564 49.5159 98.6324 50.2307 101.026 49.6707C102.935 49.2238 103.025 49.0819 117.189 24.2704C125.578 9.57586 126.275 7.61271 123.581 6.26882C122.752 5.85504 81.5748 9.75992 77.7739 10.6131C77.2441 10.732 76.4774 11.4309 76.0708 12.1657ZM79.5848 31.0004C76.8137 32.8009 75.6551 33.9063 75.8166 34.5965C76.2162 36.3042 76.7846 36.1954 80.9577 33.6122C85.5719 30.7566 87.0512 29.2965 86.1984 28.4399C85.3474 27.5855 84.0962 28.0697 79.5848 31.0004ZM80.5435 38.4638C76.0769 41.4501 73.6907 43.4092 73.7172 44.0687C73.7922 45.9599 75.4502 45.3259 82.3519 40.7657C90.3071 35.5102 90.6506 35.2092 89.9172 34.1289C89.1126 32.9431 88.1028 33.4102 80.5435 38.4638Z" fill="#FFA500"/>
<path fill-rule="evenodd" clip-rule="evenodd" d="M76.0706 12.1656C75.6639 12.9004 75.4246 13.9019 75.539 14.3908C75.8541 15.7374 82.6455 22.1806 83.531 21.9733C85.1562 21.5931 84.4528 19.8127 81.5687 17.0058C79.9222 15.4035 78.6889 13.9099 78.8274 13.6868C78.9658 13.463 88.5024 12.2671 100.019 11.0288C111.535 9.79069 121.161 8.72714 121.409 8.66541C121.657 8.60428 121.922 8.81883 121.998 9.14314C122.163 9.84903 101.39 46.2358 100.576 46.6653C99.6445 47.158 95.9026 36.3517 95.9794 33.3892C96.0845 29.3386 98.6467 25.9961 104.55 22.2113C108.74 19.525 109.612 18.7098 109.376 17.7007C109.014 16.1515 107.565 16.7462 101.284 21.0242C92.158 27.2398 91.1179 31.775 95.9446 44.2966C97.9563 49.5159 98.6322 50.2307 101.025 49.6707C102.935 49.2238 103.025 49.0819 117.189 24.2704C125.577 9.57582 126.275 7.61267 123.581 6.26878C122.752 5.855 81.5746 9.75988 77.7737 10.6131C77.2439 10.732 76.4772 11.4308 76.0706 12.1656Z" fill="#0336FF"/>
</svg>
